<svg viewBox="0 0 1024 1024" fill="none" xmlns="http://www.w3.org/2000/svg"><defs><linearGradient id="Layer_5" x1="50%" y1="0%" x2="50%" y2="100%" gradientUnits="userSpaceOnUse"><stop offset="0%" style="stop-color: #CA0FD0C7" /><stop offset="100%" style="stop-color: #5451FFFF" /></linearGradient></defs><g fill="url(#Layer_5)">
<path fill-rule="evenodd" clip-rule="evenodd" d="M0 512V1024H512H1024V512V0H512H0V512ZM483.5 168.516C485.7 169.453 491.158 172.599 495.628 175.508C521.551 192.374 543.832 220.71 555.012 251.031C560.12 264.887 561.826 276.135 563.044 304C564.261 331.855 565.431 339.804 569.615 348.657C572.972 355.758 580.795 363.782 587.341 366.837C593.843 369.871 604.132 369.994 609.796 367.104C618.863 362.478 624 352.61 624 339.818C624 336.068 624.171 333 624.381 333C624.59 333 628.442 336.77 632.939 341.378C657.507 366.548 684.66 407.844 696.798 438.5C710.234 472.433 715.815 497.888 716.641 529C716.911 539.175 716.71 550.875 716.194 555C715.428 561.124 715.35 559.748 715.769 547.5C716.293 532.177 715.331 510.681 714.154 511.401C713.794 511.621 713.477 509.483 713.45 506.65C713.39 500.625 710.808 485.712 710.253 488.195C710.031 489.19 709.282 489.662 708.437 489.338C707.647 489.034 707 489.284 707 489.893C707 490.502 707.45 491 708 491C708.55 491 709 491.477 709 492.059C709 492.641 708.438 492.78 707.75 492.367C706.804 491.799 706.815 492.004 707.792 493.211C708.847 494.514 708.847 494.9 707.792 495.324C706.942 495.665 707.075 495.869 708.18 495.921C709.163 495.967 710.041 495.065 710.294 493.75C710.611 492.106 710.764 492.366 710.864 494.718C710.989 497.665 710.811 497.862 708.75 497.064C707.513 496.584 706.612 495.699 706.75 495.096C706.887 494.493 706.498 494 705.883 494C705.259 494 704.997 494.882 705.29 496C705.577 497.1 705.405 498 704.906 498C704.408 498 703.986 497.438 703.968 496.75C703.949 495.981 703.429 496.168 702.619 497.234C701.895 498.188 700.943 498.638 700.503 498.234C700.064 497.831 699.954 498.513 700.259 499.751C700.564 500.99 700.405 501.751 699.907 501.442C698.378 500.498 698.892 497 700.559 497C701.416 497 701.84 496.55 701.5 496C700.422 494.256 699.059 494.915 698.413 497.492C697.885 499.594 697.373 499.886 695.144 499.354C693.69 499.008 692.05 498.394 691.5 497.991C690.95 497.587 689.687 497.388 688.694 497.548C687.225 497.785 687.112 497.57 688.086 496.397C689.039 495.248 688.999 495.065 687.891 495.495C687.126 495.792 685.98 497.153 685.344 498.519C684.707 499.885 684.564 500.77 685.024 500.485C685.485 500.2 686.187 500.494 686.585 501.138C687.037 501.869 686.876 502.041 686.155 501.595C685.52 501.203 685 501.376 685 501.98C685 502.688 684.511 502.622 683.625 501.795C682.869 501.088 682.45 499.991 682.693 499.356C682.937 498.722 682.661 497.908 682.08 497.549C681.437 497.152 681.256 497.504 681.618 498.448C681.946 499.302 681.716 500 681.107 500C680.498 500 680 500.675 680 501.5C680 502.325 680.502 503 681.115 503C681.796 503 681.592 503.974 680.592 505.5C679.058 507.842 679.066 508.005 680.727 508.079C681.868 508.13 682.034 508.345 681.192 508.682C680.473 508.97 679.067 508.465 678.067 507.561C675.969 505.662 673.798 505.843 672.82 508C672.264 509.228 672.128 509.182 672.07 507.75C672.032 506.788 672.009 505.766 672.021 505.48C672.072 504.226 669.394 502.295 668.226 502.744C667.252 503.117 667.328 503.52 668.541 504.406C669.912 505.409 669.488 505.901 665.57 507.858C663.057 509.113 661 510.784 661 511.57C661 512.357 660.6 513 660.111 513C659.622 513 659.243 512.438 659.269 511.75C659.4 508.221 658.915 507.095 657.5 507.638C656.003 508.213 655.684 507.409 655.859 503.5C655.925 502.026 655.676 502.209 654.91 504.194C654.289 505.803 653.334 506.681 652.537 506.376C651.803 506.094 650.908 506.339 650.549 506.92C650.138 507.585 650.533 507.733 651.612 507.319C652.769 506.875 653.095 507.038 652.612 507.819C652.152 508.563 652.425 508.774 653.375 508.41C654.481 507.985 654.714 508.376 654.3 509.961C653.782 511.941 653.627 511.972 651.931 510.438C650.27 508.934 649.85 508.929 646.962 510.369C644.324 511.685 643.898 511.707 644.36 510.503C645.015 508.796 643.422 507.508 642.5 509C642.149 509.568 641.443 509.774 640.931 509.457C640.419 509.141 640 509.407 640 510.048C640 510.718 640.698 510.946 641.641 510.584C642.931 510.089 643.043 510.244 642.162 511.305C641.379 512.248 641.336 513.686 642.02 516.071C642.559 517.95 642.959 520.39 642.91 521.493C642.86 522.597 641.974 520.35 640.94 516.5C639.906 512.65 639.301 508.6 639.595 507.5C640.03 505.876 639.933 505.782 639.081 507C638.167 508.305 638.029 508.283 638.015 506.833C638.007 505.916 637.084 503.028 635.963 500.415C634.339 496.625 634.187 495.476 635.213 494.737C636.162 494.055 636.068 493.948 634.858 494.333C633.643 494.719 632.783 493.721 631.552 490.496C628.935 483.646 616.918 466.185 608.937 457.64C594.914 442.624 572.997 428.605 553.389 422.111C528.454 413.852 497.589 413.664 471.16 421.612C442.425 430.252 414.066 453.13 397.991 480.638C395.786 484.412 393.648 487.275 393.241 487C392.833 486.725 392.468 487.625 392.43 489C392.391 490.375 391.384 493.525 390.192 496C388.935 498.611 388.226 499.451 388.503 498C388.766 496.625 388.717 496.081 388.394 496.792C387.913 497.847 387.519 497.847 386.239 496.792C384.853 495.648 384.809 495.756 385.859 497.727C386.862 499.609 386.809 499.864 385.523 499.371C384.685 499.049 384 499.284 384 499.893C384 500.502 384.9 501 386 501C388.172 501 388.305 501.464 387 504.5C386.18 506.408 386.137 506.397 386.07 504.25C386.032 503.012 385.523 502 384.941 502C384.359 502 384.16 502.45 384.5 503C384.84 503.55 384.529 504.014 383.809 504.03C383.001 504.049 383.17 504.451 384.25 505.08C385.212 505.641 386 506.779 386 507.609C386 508.439 385.592 508.866 385.093 508.558C384.595 508.249 384.372 508.785 384.599 509.749C384.826 510.712 384.335 513.75 383.508 516.5C382.094 521.206 382.132 518.305 383.56 512.617C383.973 510.973 383.805 510 383.108 510C382.499 510 382.071 510.337 382.159 510.75C382.246 511.163 381.961 512.319 381.525 513.32C380.806 514.971 380.57 514.893 378.984 512.476C378.023 511.011 377.413 508.842 377.629 507.656C377.845 506.47 377.754 506.065 377.426 506.756C377.098 507.447 376.418 507.758 375.915 507.447C375.412 507.136 375 507.376 375 507.98C375 508.584 373.989 508.136 372.753 506.985L370.506 504.891L368.587 507.196C367.269 508.778 366.867 508.952 367.303 507.75C367.714 506.616 367.446 506 366.542 506C365.775 506 365.001 506.678 364.823 507.507C364.565 508.713 363.953 508.542 361.768 506.656C360.265 505.359 359.365 503.934 359.768 503.489C360.17 503.044 359.916 503.017 359.201 503.429C358.191 504.012 358.166 504.496 359.093 505.612C361.001 507.911 356.877 506.063 354.75 503.666C353.787 502.582 353 502.234 353 502.895C353 503.555 354.238 505.185 355.75 506.516C357.262 507.848 357.938 508.951 357.25 508.968C356.563 508.986 356 509.477 356 510.059C356 510.641 356.45 510.84 357 510.5C357.55 510.16 358 510.328 358 510.874C358 512.043 354.116 513.45 353.258 512.591C352.933 512.266 353.341 512 354.166 512C355.999 512 355.912 508.473 354.038 506.734C353.229 505.985 352.956 505.946 353.342 506.637C353.692 507.262 353.298 508.338 352.466 509.028C351.225 510.058 351.055 510.021 351.516 508.82C351.875 507.884 351.102 506.912 349.37 506.123C347.021 505.052 346.824 505.083 347.88 506.356C348.707 507.351 348.761 508.03 348.049 508.47C347.472 508.826 347 508.641 347 508.059C347 507.477 346.212 506.964 345.25 506.921C344.205 506.874 344.003 506.639 344.75 506.338C345.438 506.06 345.997 505.083 345.993 504.167C345.989 502.964 345.502 503.223 344.243 505.098C343.285 506.527 341.937 507.502 341.249 507.265C340.453 506.99 340.219 507.408 340.606 508.416C341.003 509.45 340.664 510 339.632 510C338.319 510 338.227 509.532 339.095 507.25C339.67 505.738 340.142 504.293 340.144 504.039C340.153 502.948 336.391 502.334 335.256 503.241C334.305 504.001 334.098 503.496 334.376 501.103C334.675 498.542 334.491 498.178 333.371 499.107C332.409 499.905 332 499.919 332 499.154C332 498.547 331.261 498.346 330.336 498.701C329.128 499.165 328.864 498.951 329.373 497.92C329.759 497.139 329.528 497.239 328.86 498.142C327.736 499.662 327.529 499.659 326.073 498.095C325.208 497.166 324.813 496.893 325.195 497.489C325.604 498.127 325.122 498.571 324.018 498.571C322.989 498.571 322.408 498.148 322.728 497.631C323.052 497.106 322.769 497.025 322.086 497.447C321.414 497.862 321.096 498.809 321.381 499.55C321.72 500.435 321.38 500.699 320.392 500.32C319.491 499.975 319.133 499.089 319.502 498.121C319.99 496.838 319.861 496.756 318.883 497.726C317.903 498.699 318.027 499.373 319.484 500.983C320.494 502.099 321.055 503.278 320.73 503.604C320.405 503.929 319.576 503.294 318.888 502.193C317.721 500.323 317.479 500.296 315.22 501.775C313.891 502.646 312.426 504.291 311.965 505.43C311.292 507.092 311.114 507.161 311.063 505.78C311.029 504.834 312.35 503.062 314 501.842C317.273 499.422 318.018 496.738 315.286 497.206C314.219 497.389 313.444 496.745 313.232 495.5C313.033 494.329 313.225 493.943 313.696 494.568C314.138 495.156 316.151 495.659 318.168 495.687C322.313 495.744 322.451 494.114 318.481 491.99C317.154 491.28 316.301 490.322 316.586 489.861C316.871 489.4 316.481 489.262 315.719 489.554C314.676 489.954 314.414 489.271 314.657 486.793C315.242 480.84 312.14 494.151 310.298 505.5C308.95 513.811 308.512 522.245 308.507 540C308.503 552.925 308.215 560.575 307.867 557C306.175 539.628 307.564 511.34 310.96 494C318.379 456.124 332.958 423.539 358.831 387C372.035 368.354 388.197 348.795 417.917 315.5C451.392 277.997 464.218 259.411 471.601 237.704C478.279 218.07 478.977 194.835 473.587 171.688C472.714 167.941 472 164.699 472 164.482C472 164.036 477.557 165.985 483.5 168.516ZM535.065 418.618C561.701 423.193 586.99 436.827 606.451 457.102C620.381 471.615 629.502 486.231 635.835 504.186C641.273 519.603 642.163 526.673 642.994 561C643.84 595.946 645.027 604.809 651.515 624.616C657 641.36 670.298 666.584 672.197 663.847C672.865 662.884 672.97 663.081 672.565 664.538C672.152 666.028 673.72 668.725 678.392 674.565C686.294 684.442 695.506 693.19 710.78 705.325C728.797 719.639 731.402 723.387 731.401 735C731.401 747.184 725.523 757.256 714.534 763.899C706.743 768.609 700.094 770.612 681.055 773.986C670.17 775.915 663.759 777.536 662.091 778.781C660.538 779.941 658.196 784.083 655.985 789.581C651.287 801.262 650.89 801.925 645.756 806.657C637.354 814.402 633.969 814.971 602.5 813.93C589.995 813.516 589.279 813.604 583.692 816.221C580.498 817.718 574.021 821.925 569.298 825.57C551.963 838.951 539.889 844.805 523.896 847.581C500.395 851.66 480.575 845.329 455.013 825.578C439.719 813.761 434.262 812.277 412.54 814.029C395.117 815.433 390.169 814.761 382.603 809.963C376.546 806.122 372.813 800.698 368.415 789.348C366.067 783.287 363.916 779.336 362.438 778.368C361.168 777.536 353.013 775.59 344.315 774.045C318.918 769.532 313.565 767.485 304.337 758.758C295.163 750.081 291.39 738.881 293.99 728.042C295.508 721.715 302.463 713.774 314.474 704.656C325.198 696.514 339.763 682.339 346.672 673.318C352.285 665.99 352.29 665.978 350.396 663.74L348.5 661.5L350.643 663.308C352.765 665.099 352.817 665.062 356.309 659.308C366.589 642.366 374.176 622.85 378.017 603.47C379.761 594.672 380.356 586.759 381.024 563.5C382.187 522.94 384.523 510.557 394.982 489.5C402.249 474.867 410.92 463.159 423.002 451.661C443.082 432.552 464.486 422.157 493 417.666C500.182 416.535 526.392 417.128 535.065 418.618ZM491.729 437.512C468.622 441.396 449.53 451.202 433.493 467.421C420.844 480.213 411.56 495.287 406.122 511.863C401.91 524.702 400.874 533.569 399.976 564.5C398.995 598.315 397.396 609.025 390.038 631.094C378.841 664.678 355.435 697.042 327.83 717.109C313.073 727.837 311.999 728.995 312.004 734.173C312.008 739.283 314.444 743.711 319.277 747.398C323.973 750.98 328.747 752.409 348 756C374.635 760.967 379.662 764.469 385.553 782.16C387.013 786.543 389.246 791.338 390.516 792.815C393.077 795.795 394.718 795.904 422.5 794.929C437.914 794.388 445.206 796.522 457.291 805.111C486.174 825.639 492.554 828.737 507.857 829.671C524.922 830.712 538.592 825.642 558.5 810.887C577.861 796.538 588.016 793.179 606.573 794.983C612.033 795.514 619.503 795.96 623.173 795.974C632.284 796.009 634.909 793.782 638.516 782.953C642.08 772.25 646.284 766.16 652.379 762.871C657.453 760.133 662.479 758.842 684.826 754.539C698.921 751.825 702.752 750.395 707.339 746.136C713.174 740.719 714.714 733.449 711.021 728.754C709.933 727.37 704.645 723.15 699.271 719.377C686.843 710.65 666.551 690.413 657.781 678C646.053 661.401 635.644 639.536 630.605 620.918C625.939 603.673 624.875 594.12 623.993 561.5C623.07 527.404 622.317 521.966 616.392 506.598C604.568 475.928 577.128 450.236 546.5 441.156C529.45 436.102 508.432 434.703 491.729 437.512ZM526.533 438.068C555.836 442.144 579.559 455.103 597.328 476.742C602.625 483.194 603.117 484.164 601.883 485.737C600.642 487.32 600.671 487.366 602.171 486.193C603.651 485.036 604.321 485.691 608.002 491.887C611.418 497.637 611.96 499.211 611.033 500.694C610.051 502.266 609.974 502.176 610.443 500C610.739 498.625 610.722 498.065 610.405 498.756C610.088 499.447 609.452 499.779 608.99 499.494C607.966 498.861 608.441 510.744 609.547 513.414C610.107 514.765 609.996 515.115 609.17 514.605C608.526 514.207 608 514.344 608 514.91C608 515.475 607.245 515.648 606.323 515.294C604.778 514.701 604.783 514.602 606.397 514.036C610.005 512.77 606.594 509.359 602.894 510.534C601.024 511.127 600.941 510.979 602.014 508.974C602.809 507.489 602.837 506.983 602.1 507.438C601.495 507.812 601 507.615 601 507C601 506.385 600.46 506.216 599.799 506.624C598.878 507.194 598.892 507.464 599.86 507.787C600.785 508.095 600.638 508.76 599.311 510.276C598.315 511.413 598.063 512.015 598.75 511.613C599.453 511.202 600 511.392 600 512.048C600 512.689 600.675 512.955 601.5 512.638C602.33 512.32 602.993 512.607 602.985 513.281C602.965 514.868 601.518 517.126 600.388 517.335C599.9 517.426 599.612 517.837 599.75 518.25C599.887 518.663 599.55 519 599 519C598.45 519 598 518.325 598 517.5C598 516.675 597.55 516 597 516C596.45 516 596 515.502 596 514.893C596 514.284 596.675 514.045 597.5 514.362C598.325 514.678 599 514.501 599 513.969C599 513.436 598.114 513 597.031 513C595.606 513 595.239 512.541 595.701 511.336C596.156 510.15 595.971 509.9 595.058 510.464C594.302 510.931 593.418 510.691 592.904 509.878C592.213 508.788 592.027 508.866 592.015 510.25C592.005 511.455 591.144 512.042 589.25 512.136C587.009 512.247 586.902 512.351 588.674 512.696C589.87 512.929 591.604 514.273 592.528 515.683C593.51 517.181 593.678 517.919 592.934 517.459C592.022 516.896 591.847 517.159 592.319 518.388C592.71 519.407 592.576 519.856 591.989 519.493C591.445 519.157 591 518.289 591 517.563C591 516.838 590.302 515.666 589.449 514.958C588.14 513.871 587.811 514.007 587.333 515.836C587.021 517.026 586.482 518.033 586.133 518.074C585.785 518.115 584.51 518.334 583.3 518.56C580.835 519.022 579.333 517.53 581.138 516.415C581.865 515.965 582.041 516.124 581.603 516.834C581.128 517.602 581.471 517.756 582.648 517.305C583.611 516.935 583.907 516.469 583.306 516.269C582.704 516.068 582.429 515.076 582.693 514.065C583.281 511.816 581.437 510.418 580.636 512.506C580.321 513.328 580.525 514 581.09 514C581.656 514 581.835 514.457 581.49 515.016C581.144 515.575 580.443 515.774 579.931 515.457C579.419 515.141 578.939 515.921 578.864 517.191C578.73 519.463 578.721 519.464 578.301 517.302C578.066 516.092 578.354 514.207 578.94 513.112C579.729 511.637 579.681 510.935 578.753 510.4C578.064 510.004 577.822 510.036 578.215 510.471C578.608 510.907 578.4 512.216 577.752 513.381C577.105 514.547 576.639 515.741 576.716 516.036C576.794 516.33 576.022 516.571 575.002 516.571C573.982 516.571 573.346 516.249 573.59 515.855C573.833 515.461 573.545 514.837 572.948 514.468C572.352 514.099 572.096 513.191 572.381 512.45C572.723 511.559 572.379 511.301 571.369 511.689C570.465 512.035 570.038 513.038 570.326 514.137C570.593 515.161 570.335 516.293 569.752 516.654C569.079 517.069 568.991 516.824 569.51 515.985C570.104 515.023 569.872 514.835 568.664 515.299C567.749 515.65 567 515.501 567 514.969C567 514.436 567.342 514 567.759 514C568.177 514 569.021 513.196 569.634 512.214C570.55 510.748 570.427 510.429 568.948 510.429C567.957 510.429 567.365 510.782 567.632 511.214C567.9 511.646 567.641 512 567.059 512C566.477 512 566 511.464 566 510.809C566 510.154 565.318 510.491 564.486 511.559C563.437 512.902 563.052 513.038 563.236 512C563.406 511.036 562.849 510.611 561.676 510.811C560.673 510.982 559.215 510.594 558.438 509.948C557.324 509.024 556.886 509.135 556.373 510.471C555.855 511.82 555.548 511.894 554.876 510.834C554.177 509.731 554.028 509.737 554.015 510.867C554.005 511.751 553.275 512.044 551.943 511.695C550.158 511.229 550.059 511.37 551.193 512.766C552.312 514.144 552.253 514.282 550.776 513.729C549.712 513.33 548.713 513.69 548.165 514.67C547.516 515.83 547.078 515.935 546.538 515.062C546.122 514.388 546.535 513.329 547.487 512.633C548.984 511.539 548.883 511.4 546.587 511.4C545.164 511.4 544 511.812 544 512.317C544 512.821 542.871 513.017 541.491 512.754C539.5 512.373 539.208 512.546 540.077 513.593C540.68 514.319 540.885 515.377 540.534 515.945C540.144 516.576 540.544 516.728 541.564 516.337C542.972 515.797 543.064 516.013 542.152 517.717C541.557 518.828 541.26 519.927 541.492 520.159C541.724 520.391 540.98 520.651 539.839 520.737C537.94 520.88 537.909 520.787 539.472 519.644C541.028 518.506 541.039 518.277 539.59 517.075C538.625 516.274 538 516.174 538 516.82C538 517.406 537.1 517.712 536 517.5C533.92 517.099 533.258 518.423 535 519.5C536.689 520.544 536.211 524.018 534.47 523.35C533.505 522.98 533.161 522.069 533.538 520.882C533.881 519.8 533.656 519 533.008 519C532.389 519 532.14 518.582 532.456 518.072C532.771 517.562 532.123 516.856 531.015 516.505C529.907 516.153 529 515.446 529 514.933C529 514.42 528.495 514 527.878 514C527.052 514 527.05 514.355 527.869 515.342C528.481 516.08 528.649 517.052 528.241 517.502C527.834 517.952 528.175 517.957 529 517.514C530.206 516.865 530.26 516.966 529.274 518.03C528.434 518.935 528.367 519.737 529.059 520.571C529.793 521.456 529.581 521.75 528.285 521.645C526.977 521.539 526.584 522.101 526.813 523.75C526.985 524.987 526.641 526 526.049 526C525.395 526 525.185 524.79 525.513 522.924C525.861 520.953 525.686 520.076 525.028 520.483C524.462 520.832 524 520.641 524 520.059C524 519.477 524.675 519 525.5 519C526.325 519 527 518.55 527 518C527 516.729 526.654 516.745 523.547 518.161C522.146 518.799 521 519.725 521 520.22C521 520.714 521.52 520.797 522.155 520.405C522.87 519.962 523.038 520.13 522.595 520.845C522.203 521.48 522.359 522 522.941 522C523.523 522 523.986 522.788 523.97 523.75C523.941 525.417 523.891 525.417 522.92 523.75C522.359 522.788 521.418 522 520.828 522C520.141 522 520.203 522.539 521 523.5C522.918 525.811 521.334 525.275 519.074 522.849C517.971 521.665 517.335 520.267 517.66 519.742C517.998 519.195 518.618 519.367 519.11 520.143C519.742 521.142 519.973 521.17 519.985 520.25C519.993 519.563 520.9 518.1 522 517C524.452 514.548 522.827 514.398 518.904 516.716C515.813 518.542 515.208 520.794 517.25 522.871C517.938 523.571 518.05 524.057 517.5 523.953C515.06 523.49 513.824 524.099 514.362 525.5C514.678 526.325 514.554 527 514.085 527C513.617 527 513.002 526.115 512.719 525.034C512.436 523.953 512.496 523.106 512.853 523.153C514.83 523.41 516.04 522.874 515.49 521.984C515.144 521.425 514.452 521.221 513.952 521.53C513.451 521.839 512.126 521.602 511.006 521.003C509.887 520.404 509.031 520.271 509.104 520.707C509.42 522.593 508.923 524 507.941 524C507.359 524 507.146 523.573 507.469 523.05C507.792 522.528 507.173 521.628 506.094 521.05C503.254 519.53 502.558 519.758 504.128 521.692C505.31 523.149 505.294 523.26 504.014 522.487C503.197 521.994 500.947 521.701 499.014 521.837C496.351 522.023 495.863 521.834 497 521.057C497.825 520.492 498.163 519.967 497.75 519.89C497.337 519.813 496.663 519.682 496.25 519.599C494.676 519.282 491.555 517.059 492.643 517.03C493.272 517.014 494.001 516.438 494.264 515.75C494.587 514.907 493.582 514.458 491.178 514.372C487.868 514.254 487.752 514.346 489.552 515.662C491.219 516.881 491.281 517.211 489.995 518.024C488.999 518.654 488.918 518.974 489.75 518.985C490.438 518.993 490.997 519.788 490.993 520.75C490.989 522.031 490.484 521.738 489.111 519.655C487.962 517.912 486.973 517.234 486.559 517.905C486.186 518.507 485.432 519 484.882 519C484.332 519 484.22 518.438 484.633 517.75C485.071 517.021 484.598 517.126 483.5 518C482.464 518.825 481.925 518.985 482.302 518.355C482.68 517.725 482.352 516.965 481.574 516.667C480.155 516.122 480.001 513.665 481.304 512.362C482.438 511.229 482.102 510.333 480.544 510.333C479.743 510.333 479.289 510.659 479.535 511.057C479.781 511.455 478.792 512.561 477.337 513.515C474.823 515.162 474.724 515.161 475.36 513.505C475.911 512.069 475.585 511.846 473.514 512.242C472.131 512.506 471 512.335 471 511.861C471 510.977 472.356 510.654 475 510.906C476.068 511.008 475.968 510.724 474.654 509.921C473.307 509.098 472.508 509.092 471.704 509.896C471.097 510.503 469.742 511 468.693 511C467.584 511 466.982 511.523 467.255 512.25C467.512 512.938 467.367 514.4 466.932 515.5C466.232 517.268 466.132 517.193 466.07 514.857C466.032 513.403 465.405 511.986 464.678 511.707C463.074 511.091 460.658 514.637 461.621 516.195C462.052 516.893 461.852 517.027 461.086 516.553C460.414 516.138 460.105 515.168 460.4 514.399C460.696 513.629 460.389 512.986 459.719 512.968C459.048 512.951 459.383 512.269 460.461 511.453C462.312 510.055 462.241 509.991 459.207 510.323C457.439 510.516 455.706 510.961 455.357 511.31C455.007 511.66 454.24 511.649 453.653 511.285C453.065 510.922 451.515 510.511 450.208 510.372C448.4 510.179 447.977 510.497 448.439 511.701C448.937 512.999 448.78 513.063 447.567 512.055C445.118 510.023 443.793 511.861 446 514.23C448.382 516.788 448.242 516.983 443.703 517.423C440.936 517.691 440.274 517.449 440.705 516.326C441.009 515.534 441.861 515.116 442.597 515.399C443.333 515.681 444.202 515.482 444.527 514.956C444.864 514.411 443.481 514.007 441.309 514.015C438.481 514.027 437.887 514.28 439 515C440.049 515.678 440.115 515.974 439.219 515.985C438.514 515.993 437.679 515.328 437.364 514.506C437.048 513.684 436.318 513.303 435.741 513.66C435.107 514.052 434.99 513.825 435.447 513.086C435.862 512.414 436.855 512.114 437.653 512.42C438.579 512.776 438.845 512.558 438.388 511.819C437.917 511.057 438.214 510.868 439.253 511.267C440.123 511.601 441.056 511.297 441.326 510.593C441.667 509.704 441.084 509.452 439.421 509.77C437.834 510.074 436.816 509.685 436.408 508.62C436.068 507.735 435.311 507.308 434.725 507.67C434.051 508.087 433.902 507.699 434.319 506.612C434.71 505.593 434.576 505.144 433.989 505.507C432.453 506.456 432.825 509 434.5 509C435.325 509 436 509.675 436 510.5C436 512.441 435.092 512.384 431.902 510.243C430.473 509.285 429.498 507.937 429.735 507.249C430.001 506.479 429.597 506.218 428.682 506.568C427.865 506.882 426.97 508.007 426.692 509.069C426.414 510.131 425.643 511 424.977 511C424.248 511 423.981 510.182 424.305 508.943C424.748 507.247 424.591 507.095 423.409 508.076C422.315 508.984 422.247 509.592 423.121 510.646C423.751 511.405 424.852 511.908 425.568 511.763C426.851 511.504 427.015 511.79 426.985 514.25C426.974 515.103 426.676 515.036 426.046 514.04C425.257 512.793 424.784 512.865 422.811 514.529C421.54 515.601 420.816 516.092 421.202 515.62C421.589 515.148 421.239 514.096 420.425 513.282C419.176 512.033 418.688 512.013 417.306 513.151C415.84 514.358 415.74 514.212 416.351 511.759C416.902 509.546 416.451 508.408 414.017 505.86C412.358 504.124 411 502.53 411 502.318C411 501.468 416.394 491.362 418.74 487.816C420.117 485.735 421.709 484.32 422.277 484.671C422.879 485.043 423.007 484.82 422.584 484.135C420.874 481.369 437.834 463.257 449.623 455.26C463.103 446.116 480.213 439.831 497.5 437.674C504.083 436.853 519.277 437.059 526.533 438.068ZM317.079 474.583C317.127 475.748 317.364 475.985 317.683 475.188C317.972 474.466 317.936 473.603 317.604 473.271C317.272 472.939 317.036 473.529 317.079 474.583ZM707.574 478.75C708.31 480.813 708.932 483.363 708.956 484.417C708.98 485.471 709.276 486.058 709.613 485.721C710.423 484.91 708.025 475 707.018 475C706.588 475 706.838 476.688 707.574 478.75ZM315.612 479.819C315.322 480.288 315.442 481.983 315.879 483.586L316.672 486.5L317.169 483.206C317.645 480.051 316.716 478.032 315.612 479.819ZM393 484.059C393 484.641 393.45 484.84 394 484.5C394.55 484.16 395 483.684 395 483.441C395 483.198 394.55 483 394 483C393.45 483 393 483.477 393 484.059ZM701.743 493.127C702.013 494.157 702.657 495 703.176 495C703.694 495 703.864 494.588 703.553 494.085C703.242 493.582 703.541 492.986 704.218 492.761C704.895 492.535 704.505 492.104 703.351 491.802C701.675 491.364 701.352 491.63 701.743 493.127ZM317.807 494.526C317.499 494.834 316.94 494.279 316.564 493.293C316.022 491.868 316.136 491.753 317.124 492.733C317.808 493.412 318.115 494.219 317.807 494.526ZM683.459 495.067C683.096 495.653 683.014 496.348 683.276 496.61C683.538 496.872 684.019 496.392 684.345 495.543C685.021 493.781 684.445 493.471 683.459 495.067ZM691.573 494.951C689.879 495.566 689.845 495.727 691.291 496.281C692.196 496.629 693.22 496.452 693.568 495.89C694.461 494.446 693.809 494.139 691.573 494.951ZM636 498.059C636 498.641 636.412 498.864 636.915 498.553C637.418 498.242 638.031 498.553 638.278 499.244C638.524 499.935 639.058 500.192 639.463 499.817C639.869 499.441 639.904 498.653 639.541 498.067C638.688 496.686 636 496.681 636 498.059ZM338.399 499.25C338.003 499.938 338.048 500.166 338.498 499.759C338.948 499.351 339.93 499.527 340.681 500.15C341.76 501.045 341.914 500.939 341.416 499.641C340.666 497.687 339.393 497.522 338.399 499.25ZM413.072 500.25C411.893 503.324 413.536 504.892 415.685 502.744C417.245 501.183 417.239 501.029 415.594 500.398C414.202 499.864 414.113 499.544 415.166 498.876C416.21 498.214 416.221 498.027 415.218 498.015C414.513 498.007 413.547 499.012 413.072 500.25ZM369.292 500.514C368.343 501.545 368.402 502.088 369.566 503.055C371.415 504.589 371.841 504.112 371.087 501.351C370.611 499.607 370.273 499.45 369.292 500.514ZM692 501.118C692 501.668 691.55 501.84 691 501.5C690.45 501.16 690 500.432 690 499.882C690 499.332 690.45 499.16 691 499.5C691.55 499.84 692 500.568 692 501.118ZM330.434 501.107C329.968 501.861 330.467 501.987 332 501.5C333.517 501.019 334.031 501.142 333.576 501.878C333.205 502.478 331.823 502.88 330.505 502.771C328.675 502.62 328.362 502.269 329.177 501.286C330.485 499.711 331.375 499.584 330.434 501.107ZM637 500.84C637 501.268 637.579 502.409 638.286 503.376C639.488 505.02 639.571 505.001 639.571 503.092C639.571 501.969 638.993 500.828 638.286 500.556C637.579 500.285 637 500.413 637 500.84ZM676.262 501.286C676.393 501.954 675.712 502.438 674.75 502.361C672.886 502.213 672.383 503.5 673.931 504.457C674.443 504.774 675.174 504.527 675.556 503.91C676.034 503.136 676.453 503.114 676.901 503.84C677.318 504.515 678.084 504.559 679.026 503.963C680.225 503.205 680.127 503.025 678.5 503C677.021 502.977 676.847 502.749 677.834 502.124C678.909 501.442 678.863 501.161 677.596 500.675C676.655 500.314 676.12 500.559 676.262 501.286ZM696 500.393C696 500.609 695.325 501.045 694.5 501.362C693.675 501.678 693 501.501 693 500.969C693 500.436 693.675 500 694.5 500C695.325 500 696 500.177 696 500.393ZM342.25 501.662C341.563 501.94 341.036 502.917 341.079 503.833C341.129 504.883 341.346 505.035 341.664 504.244C341.943 503.553 342.652 503.285 343.24 503.648C343.841 504.02 344.02 503.841 343.648 503.24C343.285 502.652 343.553 501.943 344.244 501.664C344.935 501.386 345.05 501.158 344.5 501.158C343.95 501.158 342.938 501.385 342.25 501.662ZM350.697 502.393C350.288 503.434 350.189 504.522 350.476 504.81C351.389 505.722 352.191 504.227 351.809 502.328C351.459 500.588 351.405 500.591 350.697 502.393ZM361.405 502.155C360.983 502.837 361.128 503.039 361.76 502.648C362.348 502.285 363.01 502.53 363.231 503.193C363.485 503.954 363.874 503.772 364.285 502.699C365.033 500.749 362.562 500.282 361.405 502.155ZM616.455 510.744C617 512.553 616.812 512.865 615.485 512.356C614.478 511.97 614.028 511 614.326 509.861C614.594 508.836 614.433 508.233 613.967 508.52C613.502 508.808 613.171 508.246 613.232 507.272C613.293 506.297 613.046 504.375 612.684 503C611.933 500.15 615.423 507.317 616.455 510.744ZM657.079 503.583C657.127 504.748 657.364 504.985 657.683 504.188C657.972 503.466 657.936 502.603 657.604 502.271C657.272 501.939 657.036 502.529 657.079 503.583ZM665 503C665 503.55 664.25 504 663.333 504C661.498 504 662.304 505.281 664.325 505.577C665.022 505.679 665.656 504.916 665.734 503.882C665.812 502.847 665.679 502 665.438 502C665.197 502 665 502.45 665 503ZM329.092 504.443C330.033 503.862 333 506.254 333 507.595C333 508.001 332.704 508.037 332.342 507.675C331.98 507.313 331.116 507.489 330.421 508.066C329.465 508.859 329.274 508.667 329.638 507.277C330.036 505.753 329.548 505.454 326.779 505.524C324.943 505.571 322.858 505.97 322.146 506.41C321.096 507.059 321.088 506.831 322.108 505.199C323.116 503.584 323.837 503.368 325.766 504.101C327.087 504.603 328.584 504.757 329.092 504.443ZM338.591 505.743C337.897 506.436 336 505.027 336 503.819C336 503.155 336.574 503.231 337.524 504.02C338.362 504.716 338.842 505.491 338.591 505.743ZM697.757 504.5C698.166 504.95 697.712 505.036 696.75 504.691C695.7 504.314 694.994 504.55 694.985 505.281C694.975 506.052 694.613 505.949 694 505C693.318 503.945 693.026 503.882 693.015 504.785C693.004 505.76 692.517 505.812 691 505C689.566 504.233 689 504.24 689 505.024C689 505.626 688.502 505.81 687.893 505.434C686.082 504.315 688.466 503.434 692.955 503.564C695.188 503.629 697.349 504.05 697.757 504.5ZM319 504.441C319 504.684 318.55 505.16 318 505.5C317.45 505.84 317 505.641 317 505.059C317 504.477 317.45 504 318 504C318.55 504 319 504.198 319 504.441ZM411.244 506.71C410.553 506.964 410.242 507.582 410.553 508.085C410.864 508.588 410.641 509 410.059 509C409.477 509 409 510.44 409 512.2C409 514.345 408.669 515.069 407.994 514.394C407.32 513.72 407.525 511.815 408.615 508.615C409.851 504.99 410.513 504.131 411.371 505.046C412.213 505.944 412.18 506.367 411.244 506.71ZM659.543 504.931C659.226 505.443 659.405 506.132 659.94 506.463C660.475 506.794 660.641 507.837 660.309 508.782C659.827 510.155 659.967 510.258 661.01 509.292C662.002 508.375 662.039 507.752 661.166 506.7C660.534 505.939 660.313 505.02 660.675 504.658C661.037 504.296 661.06 504 660.726 504C660.391 504 659.859 504.419 659.543 504.931ZM315.493 505.989C315.843 506.555 315.442 506.723 314.552 506.382C312.82 505.717 312.503 505 313.941 505C314.459 505 315.157 505.445 315.493 505.989ZM381.299 506.336C381.685 507.343 381.442 508 380.683 508C379.993 508 379.429 508.825 379.429 509.833C379.429 510.842 379.964 511.667 380.619 511.667C381.274 511.667 381.579 511.067 381.298 510.333C381.016 509.6 381.284 509 381.893 509C383.362 509 383.315 506.313 381.83 505.395C381.043 504.909 380.869 505.217 381.299 506.336ZM336.825 507.503C336.646 508.027 335.969 508.534 335.319 508.629C334.67 508.725 334.388 508.153 334.692 507.359C335.293 505.795 337.36 505.934 336.825 507.503ZM372.457 509.07C372.17 509.533 371.186 509.625 370.269 509.273C369.205 508.865 369.038 508.487 369.807 508.231C370.47 508.01 370.698 507.305 370.314 506.665C369.93 506.024 370.372 506.113 371.297 506.863C372.222 507.613 372.744 508.606 372.457 509.07ZM415 508.059C415 508.577 414.325 509 413.5 509C411.954 509 411.513 507.82 412.639 506.694C413.438 505.895 415 506.798 415 508.059ZM446.518 507.173C446.986 508.403 446.671 508.771 445.327 508.565C443.338 508.258 442.02 509.639 442.049 512C442.061 513.049 442.658 512.79 444.033 511.139C445.115 509.841 446 509.143 446 509.589C446 510.035 446.54 509.86 447.2 509.2C448.133 508.267 448.12 507.722 447.141 506.75C446.131 505.748 446.008 505.832 446.518 507.173ZM604 507C604 507.55 604.477 508 605.059 508C605.641 508 605.84 507.55 605.5 507C605.16 506.45 604.684 506 604.441 506C604.198 506 604 506.45 604 507ZM611.473 507.044C611.118 507.618 611.328 508.69 611.939 509.427C612.771 510.428 612.708 510.898 611.692 511.288C610.898 511.593 610.299 511.121 610.251 510.155C610.144 508.034 610.77 506 611.528 506C611.852 506 611.828 506.47 611.473 507.044ZM580.079 508.583C580.127 509.748 580.364 509.985 580.683 509.188C580.972 508.466 580.936 507.603 580.604 507.271C580.272 506.939 580.036 507.529 580.079 508.583ZM676.675 507.658C676.313 508.02 676.576 508.992 677.259 509.819C678.352 511.142 678.236 511.157 676.29 509.945C674.72 508.968 674.43 508.346 675.29 507.8C676.782 506.851 677.562 506.772 676.675 507.658ZM685.667 508.456C685.667 509.257 685.284 509.676 684.817 509.387C684.35 509.098 684.226 508.443 684.543 507.931C685.351 506.623 685.667 506.77 685.667 508.456ZM345.917 508.283C345.688 508.439 344.6 509.226 343.5 510.033C341.65 511.39 341.603 511.369 342.872 509.75C343.627 508.788 344.715 508 345.289 508C345.863 508 346.146 508.127 345.917 508.283ZM363 509.441C363 511.167 361.144 512.5 360.183 511.463C359.808 511.058 360.065 510.524 360.756 510.278C361.447 510.031 361.758 509.418 361.447 508.915C361.136 508.412 361.359 508 361.941 508C362.523 508 363 508.648 363 509.441ZM460.813 508.683C461.534 508.972 462.397 508.936 462.729 508.604C463.061 508.272 462.471 508.036 461.417 508.079C460.252 508.127 460.015 508.364 460.813 508.683ZM525 508.941C525 509.459 525.445 510.157 525.989 510.493C526.555 510.843 526.723 510.442 526.382 509.552C525.717 507.82 525 507.503 525 508.941ZM572.603 508.833C572.32 509.292 572.723 509.667 573.5 509.667C574.277 509.667 574.68 509.292 574.397 508.833C574.114 508.375 573.71 508 573.5 508C573.29 508 572.886 508.375 572.603 508.833ZM588.5 509C588.84 509.55 589.316 510 589.559 510C589.802 510 590 509.55 590 509C590 508.45 589.523 508 588.941 508C588.359 508 588.16 508.45 588.5 509ZM669.526 509.807C669.219 510.115 668.412 509.808 667.733 509.124C666.753 508.136 666.868 508.022 668.293 508.564C669.279 508.94 669.834 509.499 669.526 509.807ZM331.5 510C331.16 510.55 330.346 510.993 329.691 510.985C328.975 510.975 329.099 510.582 330 510C331.921 508.758 332.267 508.758 331.5 510ZM584.188 511.878C584.325 513.679 584.708 515.32 585.04 515.525C585.89 516.05 585.525 510.191 584.654 509.32C584.26 508.927 584.05 510.078 584.188 511.878ZM370.921 512.309C370.865 513.161 370.698 513.143 370.336 512.244C370.057 511.553 369.348 511.285 368.76 511.648C368.123 512.042 367.983 511.836 368.415 511.138C369.265 509.761 371.035 510.588 370.921 512.309ZM434 513.161C434 513.622 433.298 514 432.441 514C431.471 514 431.158 513.528 431.613 512.75C432.015 512.063 431.442 512.289 430.339 513.254C428.404 514.947 428.342 514.929 428.583 512.754C428.721 511.514 428.871 510.397 428.917 510.271C429.137 509.666 434 512.43 434 513.161ZM540.733 511.124C541.412 511.808 542.219 512.115 542.526 511.807C542.834 511.499 542.279 510.94 541.293 510.564C539.868 510.022 539.753 510.136 540.733 511.124ZM558.5 511C558.84 511.55 558.641 512 558.059 512C557.477 512 557 511.55 557 511C557 510.45 557.198 510 557.441 510C557.684 510 558.16 510.45 558.5 511ZM352 512.5C352 512.657 351.4 513.016 350.667 513.298C349.933 513.579 349.333 513.22 349.333 512.5C349.333 511.78 349.933 511.421 350.667 511.702C351.4 511.984 352 512.343 352 512.5ZM376 512.607C376 512.823 375.325 513 374.5 513C373.675 513 373 512.564 373 512.031C373 511.499 373.675 511.322 374.5 511.638C375.325 511.955 376 512.391 376 512.607ZM455.48 512.032C455.842 511.447 456.564 511.231 457.085 511.553C457.606 511.875 457.769 512.564 457.447 513.085C457.125 513.606 456.443 513.774 455.931 513.457C455.419 513.141 455 513.262 455 513.727C455 514.191 454.125 514.571 453.055 514.571C451.726 514.571 451.407 514.215 452.047 513.444C452.561 512.823 452.649 511.922 452.241 511.441C451.834 510.96 452.247 511.135 453.161 511.832C454.303 512.702 455.028 512.764 455.48 512.032ZM497 511.393C497 512.342 499.993 512.82 500.527 511.956C500.852 511.43 500.191 511 499.059 511C497.927 511 497 511.177 497 511.393ZM519.5 512C519.16 512.55 519.359 513 519.941 513C520.523 513 521 512.55 521 512C521 511.45 520.802 511 520.559 511C520.316 511 519.84 511.45 519.5 512ZM522.61 512.427C523.144 513.818 526.631 513.781 527.885 512.372C528.223 511.992 527.727 511.958 526.782 512.297C525.837 512.636 524.798 512.482 524.473 511.956C523.543 510.451 522.002 510.841 522.61 512.427ZM652 513.054C653.267 513.74 653.21 513.977 651.626 514.587C650.353 515.078 649.446 514.761 648.795 513.599C648.034 512.238 647.544 512.134 646.396 513.086C645.22 514.062 645.072 513.975 645.596 512.612C646.234 510.948 648.384 511.097 652 513.054ZM672.122 513.675C671.251 515.174 671.055 515.217 671.03 513.917C670.998 512.233 672.05 510.716 672.758 511.425C672.992 511.659 672.706 512.671 672.122 513.675ZM367.457 512.931C367.774 513.443 367.622 514.115 367.121 514.425C366.62 514.735 365.952 514.316 365.636 513.494C365.014 511.874 366.517 511.409 367.457 512.931ZM414.218 516.182C413.592 516.808 413.452 516.151 413.825 514.326C414.251 512.233 414.503 511.981 414.794 513.356C415.011 514.377 414.751 515.649 414.218 516.182ZM470.51 513.016C470.856 513.575 471.634 513.726 472.239 513.352C472.958 512.908 473.107 513.278 472.67 514.418C472.301 515.378 472 516.577 472 517.082C472 517.587 471.523 518 470.941 518C470.359 518 470.16 517.55 470.5 517C470.84 516.45 470.593 516 469.952 516C469.311 516 469.034 515.354 469.337 514.565C469.64 513.775 469.35 512.911 468.694 512.644C467.773 512.269 467.773 512.14 468.691 512.079C469.346 512.036 470.165 512.457 470.51 513.016ZM594.457 512.931C594.774 513.443 594.622 514.115 594.121 514.425C593.62 514.735 592.952 514.316 592.636 513.494C592.014 511.874 593.517 511.409 594.457 512.931ZM422.964 519.372C422.984 519.852 422.345 519.701 421.544 519.036C420.743 518.372 419.541 518.165 418.874 518.578C418.039 519.094 417.858 518.812 418.294 517.676C418.643 516.767 418.607 516.072 418.214 516.13C416.269 516.42 415.876 515.854 417.046 514.445C418.188 513.068 418.601 513.212 420.632 515.695C421.895 517.238 422.944 518.893 422.964 519.372ZM481.595 514.153C481.942 514.715 483.053 514.958 484.065 514.693C485.076 514.429 486.117 514.626 486.377 515.131C486.637 515.637 486.75 515.524 486.627 514.881C486.505 514.239 485.18 513.582 483.684 513.423C482.029 513.246 481.211 513.532 481.595 514.153ZM560.447 513.914C560.764 514.427 559.647 514.612 557.899 514.337C555.604 513.975 554.987 514.17 555.548 515.078C556.04 515.874 555.895 516.053 555.138 515.585C554.494 515.187 554.226 514.443 554.543 513.931C555.284 512.732 559.708 512.719 560.447 513.914ZM573.733 514.124C574.412 514.808 575.219 515.115 575.526 514.807C575.834 514.499 575.279 513.94 574.293 513.564C572.868 513.022 572.753 513.136 573.733 514.124ZM450 515C450 515.55 449.802 516 449.559 516C449.316 516 448.84 515.55 448.5 515C448.16 514.45 448.359 514 448.941 514C449.523 514 450 514.45 450 515ZM478.431 515.112C478.053 515.723 478.364 516.658 479.122 517.188C480.255 517.981 480.233 518.079 479 517.743C477.226 517.26 476.343 514 477.986 514C478.608 514 478.809 514.5 478.431 515.112ZM499.325 514.704C500.971 515.129 501.001 515.341 499.626 516.861C498.753 517.826 498.434 519.084 498.881 519.807C499.742 521.2 503 520.38 503 518.771C503 518.198 503.672 518.313 504.542 519.035C505.754 520.041 506.344 520.054 507.292 519.098C508.238 518.146 508.164 518.009 506.955 518.469C506.021 518.824 504.54 518.056 503.212 516.528C502.002 515.138 500.223 514.052 499.257 514.116C497.654 514.222 497.66 514.273 499.325 514.704ZM507 515.5C507 516.367 507.595 516.709 508.5 516.362C509.325 516.045 510 515.657 510 515.5C510 515.343 509.325 514.955 508.5 514.638C507.595 514.291 507 514.633 507 515.5ZM531.51 515.016C531.856 515.575 532.526 515.793 533 515.5C533.474 515.207 534.149 515.432 534.5 516C534.851 516.568 535.605 516.744 536.176 516.391C536.845 515.978 536.732 515.445 535.857 514.89C533.964 513.691 530.749 513.784 531.51 515.016ZM545.362 515.5C545.678 516.325 545.549 517 545.076 517C544.602 517 543.955 516.325 543.638 515.5C543.322 514.675 543.451 514 543.924 514C544.398 514 545.045 514.675 545.362 515.5ZM551.334 515.901C550.875 516.243 550.187 516.906 549.804 517.375C549.421 517.843 549.175 517.325 549.258 516.223C549.353 514.963 549.921 514.416 550.788 514.749C551.547 515.04 551.792 515.558 551.334 515.901ZM565.416 515.641C565.914 516.939 565.76 517.045 564.681 516.15C563.93 515.527 562.948 515.351 562.498 515.759C562.048 516.166 562.003 515.938 562.399 515.25C563.393 513.522 564.666 513.687 565.416 515.641ZM618.859 519C618.859 519.945 618.542 519.761 618 518.5C617.527 517.4 617.141 515.825 617.141 515C617.141 514.055 617.458 514.239 618 515.5C618.473 516.6 618.859 518.175 618.859 519ZM407.29 517.001C407.578 518.102 407.405 518.751 406.907 518.442C406.408 518.134 406 518.434 406 519.108C406 519.782 405.793 520.126 405.54 519.873C405.093 519.426 405.965 515 406.5 515C406.647 515 407.002 515.901 407.29 517.001ZM427.557 517.713C427.25 518.511 426.993 519.689 426.985 520.332C426.976 521.023 426.595 520.908 426.051 520.048C425.545 519.249 425.354 518.237 425.625 517.798C425.896 517.359 425.641 517 425.059 517C424.477 517 424 516.592 424 516.094C424 515.595 424.925 515.429 426.057 515.725C427.342 516.061 427.904 516.807 427.557 517.713ZM433.679 516.464C433.58 517.034 434.748 517.414 436.273 517.309C437.798 517.203 438.784 517.541 438.464 518.059C437.559 519.523 434.728 519.131 432.208 517.192C430.07 515.546 430.048 515.429 431.887 515.429C432.971 515.429 433.777 515.895 433.679 516.464ZM457.789 516.399C457.08 517.169 456.342 517.649 456.15 517.466C455.557 516.902 457.06 515 458.098 515C458.638 515 458.499 515.63 457.789 516.399ZM514.079 515.719C514.036 516.389 513.397 516.706 512.66 516.423C511.923 516.14 510.821 516.511 510.211 517.246C509.364 518.266 509.588 518.886 511.155 519.865C512.285 520.57 512.928 520.692 512.584 520.135C512.239 519.578 512.701 518.707 513.608 518.199C514.516 517.691 515.011 516.651 514.708 515.888C514.35 514.984 514.13 514.925 514.079 515.719ZM516 516.059C516 516.641 516.45 516.84 517 516.5C517.55 516.16 518 515.684 518 515.441C518 515.198 517.55 515 517 515C516.45 515 516 515.477 516 516.059ZM495.667 516.667C495.3 517.033 495 517.798 495 518.367C495 518.993 495.466 518.934 496.183 518.217C496.834 517.566 497.134 516.801 496.85 516.517C496.566 516.232 496.033 516.3 495.667 516.667ZM375.683 519.188C375.364 519.985 375.127 519.748 375.079 518.583C375.036 517.529 375.272 516.939 375.604 517.271C375.936 517.603 375.972 518.466 375.683 519.188ZM501.531 518.95C501.163 519.545 500.395 519.744 499.824 519.391C499.152 518.976 499.255 518.461 500.114 517.929C501.719 516.938 502.449 517.464 501.531 518.95ZM554.729 517.604C554.397 517.936 553.534 517.972 552.813 517.683C552.015 517.364 552.252 517.127 553.417 517.079C554.471 517.036 555.061 517.272 554.729 517.604ZM658 517.608C658 518.435 656.058 518.903 655.613 518.183C655.324 517.716 655.743 517.333 656.544 517.333C657.345 517.333 658 517.457 658 517.608ZM477.505 522.144C479.27 523.353 481.519 525.541 482.503 527.005C484.453 529.905 487.49 530.728 486.484 528.083C486.025 526.877 486.161 526.777 487.054 527.663C488.447 529.045 487.347 531.332 485.761 530.352C485.061 529.92 484.884 530.255 485.275 531.274C486.646 534.846 488 544.901 487.567 548.287C486.248 558.586 482.395 566.073 476.155 570.458C472.55 572.993 470.869 573.5 466.078 573.5C458.339 573.5 453.112 569.963 449.261 562.121C446.828 557.167 446.502 555.373 446.521 547C446.545 536.265 448.81 529.472 454.037 524.465C455.628 522.941 456.753 521.409 456.538 521.061C456.323 520.713 456.901 520.347 457.823 520.248C458.746 520.149 461.525 519.692 464 519.233C469.24 518.26 473.029 519.077 477.505 522.144ZM571.82 525.533C579.261 533.987 580.968 547.888 575.994 559.532C572.935 566.692 566.285 573.002 561.8 572.999C561.085 572.999 562.429 572.044 564.786 570.877C576.621 565.019 581.347 545.429 574.37 531.15C569.774 521.745 559.095 517.314 551.051 521.474C542.673 525.806 537.177 538.283 538.309 550.403C539.269 560.686 543.338 567.702 550.5 571.427C552.539 572.488 552.924 572.99 551.702 572.994C548.376 573.005 540.298 563.743 538.575 557.941C535.47 547.484 537.189 534.644 542.686 527.25C544.253 525.142 544.645 523.995 543.801 523.985C542.759 523.972 542.766 523.801 543.835 523.123C544.57 522.657 545.099 521.888 545.01 521.413C544.922 520.938 545.377 520.374 546.022 520.159C546.913 519.862 546.911 520.298 546.012 521.977L544.831 524.185L547.676 522.081C554.976 516.684 565.335 518.165 571.82 525.533ZM417.5 521C417.16 521.55 416.346 521.993 415.691 521.985C414.975 521.975 415.099 521.582 416 521C417.921 519.758 418.267 519.758 417.5 521ZM460.481 521.338C456.695 523.057 451.484 528.924 449.421 533.787C448.556 535.829 447.598 540.672 447.294 544.55C445.456 568 464.513 581.578 478.749 566.959C486.273 559.232 488.569 541.549 483.397 531.168C479.888 524.128 475.308 520.749 468.678 520.31C465.69 520.112 462.223 520.547 460.481 521.338ZM484 522C482.764 524.31 482.386 524.433 481.405 522.845C480.93 522.077 481.134 521.965 482.015 522.51C482.977 523.104 483.165 522.872 482.701 521.664C482.28 520.567 482.575 520 483.567 520C484.76 520 484.85 520.412 484 522ZM578.947 521.032C578.251 521.463 577.078 521.583 576.341 521.3C574.351 520.537 574.697 520.25 577.607 520.25C579.274 520.25 579.757 520.532 578.947 521.032ZM572.683 523.188C572.364 523.985 572.127 523.748 572.079 522.583C572.036 521.529 572.272 520.939 572.604 521.271C572.936 521.603 572.972 522.466 572.683 523.188ZM404.662 526.25C404.385 526.938 404.158 526.375 404.158 525C404.158 523.625 404.385 523.063 404.662 523.75C404.94 524.438 404.94 525.563 404.662 526.25ZM451.298 524.667C450.716 526.183 449.375 526.416 448.586 525.139C447.906 524.039 448.617 523.333 450.405 523.333C451.177 523.333 451.579 523.933 451.298 524.667ZM497.493 523.989C497.843 524.555 497.442 524.723 496.552 524.382C494.82 523.717 494.503 523 495.941 523C496.459 523 497.157 523.445 497.493 523.989ZM530.392 523.765C529.782 524.169 529.405 525.29 529.554 526.255C529.703 527.22 529.414 527.756 528.912 527.446C527.259 526.424 527.906 522.999 529.75 523.015C530.837 523.025 531.08 523.309 530.392 523.765ZM418.128 525.75C419.371 527.336 419.336 527.371 417.75 526.128C416.788 525.373 416 524.585 416 524.378C416 523.555 416.821 524.084 418.128 525.75ZM511 526C511 526.55 510.802 527 510.559 527C510.316 527 509.84 526.55 509.5 526C509.16 525.45 509.359 525 509.941 525C510.523 525 511 525.45 511 526ZM520.497 525.995C520.791 526.472 520.506 527.187 519.862 527.585C519.077 528.07 518.961 527.872 519.51 526.985C520.101 526.028 519.875 525.834 518.696 526.286C517.798 526.631 516.856 526.576 516.601 526.164C516.347 525.752 516.999 525.35 518.05 525.271C519.101 525.192 520.202 525.518 520.497 525.995ZM620.662 529.25C620.385 529.938 620.158 529.375 620.158 528C620.158 526.625 620.385 526.063 620.662 526.75C620.94 527.438 620.94 528.563 620.662 529.25ZM643.693 529.731C643.439 530.704 643.215 530.15 643.195 528.5C643.175 526.85 643.382 526.054 643.656 526.731C643.93 527.408 643.947 528.758 643.693 529.731ZM403.662 531.25C403.385 531.938 403.158 531.375 403.158 530C403.158 528.625 403.385 528.063 403.662 528.75C403.94 529.438 403.94 530.563 403.662 531.25ZM380.662 534.25C380.385 534.938 380.158 534.375 380.158 533C380.158 531.625 380.385 531.063 380.662 531.75C380.94 532.438 380.94 533.563 380.662 534.25ZM621.662 536.25C621.385 536.938 621.158 536.375 621.158 535C621.158 533.625 621.385 533.063 621.662 533.75C621.94 534.438 621.94 535.563 621.662 536.25ZM402.725 545.232C402.502 547.029 402.315 545.8 402.31 542.5C402.304 539.2 402.486 537.729 402.715 539.232C402.943 540.735 402.947 543.435 402.725 545.232ZM714.662 566.25C714.385 566.938 714.158 566.375 714.158 565C714.158 563.625 714.385 563.063 714.662 563.75C714.94 564.438 714.94 565.563 714.662 566.25ZM310.763 572.5V575.5L310 572.5C309.58 570.85 309.237 568.15 309.237 566.5V563.5L310 566.5C310.42 568.15 310.763 570.85 310.763 572.5ZM713.693 573.731C713.439 574.704 713.215 574.15 713.195 572.5C713.175 570.85 713.382 570.054 713.656 570.731C713.93 571.408 713.947 572.758 713.693 573.731ZM558.75 573.689C557.788 573.941 556.212 573.941 555.25 573.689C554.288 573.438 555.075 573.232 557 573.232C558.925 573.232 559.712 573.438 558.75 573.689ZM311.662 579.25C311.385 579.938 311.158 579.375 311.158 578C311.158 576.625 311.385 576.063 311.662 576.75C311.94 577.438 311.94 578.563 311.662 579.25ZM712.405 580.866C712.042 583.14 711.414 585 711.011 585C710.608 585 710.741 582.976 711.307 580.501C712.572 574.974 713.308 575.219 712.405 580.866ZM312.683 583.188C312.364 583.985 312.127 583.748 312.079 582.583C312.036 581.529 312.272 580.939 312.604 581.271C312.936 581.603 312.972 582.466 312.683 583.188ZM313.662 588.25C313.385 588.938 313.158 588.375 313.158 587C313.158 585.625 313.385 585.063 313.662 585.75C313.94 586.438 313.94 587.563 313.662 588.25ZM709.683 591.188C709.364 591.985 709.127 591.748 709.079 590.583C709.036 589.529 709.272 588.939 709.604 589.271C709.936 589.603 709.972 590.466 709.683 591.188ZM315.683 595.188C315.364 595.985 315.127 595.748 315.079 594.583C315.036 593.529 315.272 592.939 315.604 593.271C315.936 593.603 315.972 594.466 315.683 595.188ZM705.574 604.587C704.786 606.739 704.109 608.005 704.07 607.399C703.973 605.869 706.144 599.811 706.62 600.286C706.833 600.5 706.363 602.435 705.574 604.587ZM319.914 607.5C319.945 608.05 319.533 607.825 319 607C318.467 606.175 318.055 604.825 318.086 604C318.144 602.416 319.81 605.606 319.914 607.5ZM701.122 616.675C699.943 618.702 699.659 618.053 700.624 615.539C700.966 614.645 701.458 614.124 701.715 614.382C701.973 614.639 701.706 615.671 701.122 616.675ZM325.969 622.5C325.969 623.05 325.533 622.825 325 622C324.467 621.175 324.031 620.05 324.031 619.5C324.031 618.95 324.467 619.175 325 620C325.533 620.825 325.969 621.95 325.969 622.5ZM697.618 624.662C696.772 626.223 696.062 627.184 696.04 626.797C695.972 625.608 698.299 620.965 698.741 621.407C698.969 621.636 698.464 623.1 697.618 624.662ZM330.382 631.552C330.723 632.442 330.555 632.843 329.989 632.493C329.445 632.157 329 631.459 329 630.941C329 629.503 329.717 629.82 330.382 631.552ZM692 636C691.411 637.1 690.705 638 690.43 638C690.155 638 690.411 637.1 691 636C691.589 634.9 692.295 634 692.57 634C692.845 634 692.589 634.9 692 636ZM333.807 638.526C333.499 638.834 332.94 638.279 332.564 637.293C332.022 635.868 332.136 635.753 333.124 636.733C333.808 637.412 334.115 638.219 333.807 638.526ZM689.345 640.543C689.019 641.392 688.538 641.872 688.276 641.61C688.014 641.348 688.096 640.653 688.459 640.067C689.445 638.471 690.021 638.781 689.345 640.543ZM686 646C685.411 647.1 684.705 648 684.43 648C684.155 648 684.411 647.1 685 646C685.589 644.9 686.295 644 686.57 644C686.845 644 686.589 644.9 686 646ZM677.03 658.944C676.457 660.014 675.495 661.194 674.891 661.567C674.287 661.941 674.566 661.066 675.511 659.623C677.513 656.568 678.549 656.105 677.03 658.944ZM348.128 659.75C349.371 661.336 349.336 661.371 347.75 660.128C346.788 659.373 346 658.585 346 658.378C346 657.555 346.821 658.084 348.128 659.75Z" />
</g></svg>