<svg viewBox="0 0 1024 1024" fill="none" xmlns="http://www.w3.org/2000/svg"><defs><linearGradient id="Layer_8" x1="50%" y1="0%" x2="50%" y2="100%" gradientUnits="userSpaceOnUse"><stop offset="0%" style="stop-color: #CA0FD0C7" /><stop offset="100%" style="stop-color: #5451FFFF" /></linearGradient></defs><g fill="url(#Layer_8)">
<path fill-rule="evenodd" clip-rule="evenodd" d="M0 512V1024H512H1024V512V0H512H0V512ZM483.822 168.532C495.04 173.799 504.425 180.529 515.847 191.5C529.78 204.882 540.503 219.323 548.518 235.5C559.437 257.539 562.195 270.75 563.968 309.5C564.546 322.15 565.512 334.75 566.114 337.5C568.062 346.403 572.537 354.356 578.929 360.274C588.795 369.408 599.751 371.516 609.986 366.25C619.191 361.514 623.947 351.76 623.984 337.542L624 331.584L628.581 336.042C654.984 361.741 685.433 407.563 698.325 441C712.195 476.975 717.3 502.276 717.39 535.5C717.463 562.317 714.203 581.832 705.431 607.078C698.971 625.671 685.148 650.817 675.115 662.223L671.841 665.945L676.655 672.223C683.852 681.607 695.014 692.451 709.078 703.722C724.083 715.747 729.292 721.4 731.004 727.514C734.584 740.302 727.849 755.755 715.142 763.909C708.12 768.415 700.54 770.711 681.641 774.06C672.369 775.702 663.936 777.499 662.902 778.053C660.728 779.216 658.909 782.479 655.867 790.669C650.968 803.86 643.432 811.497 632.798 814.049C629.062 814.945 624.364 815.045 615.58 814.415C589.037 812.511 586.335 813.208 568.255 826.619C545.349 843.61 528.199 849.872 508 848.619C502.775 848.295 495.8 847.32 492.5 846.453C482.64 843.861 469.241 836.629 456.5 827.024C438.485 813.443 434.885 812.506 407.967 814.391C397.52 815.122 394.51 814.999 389.88 813.653C379.795 810.722 372.844 802.537 367.454 787.247C364.3 778.299 362.877 777.517 343.494 774.083C334.147 772.428 323.8 770.147 320.5 769.016C305.149 763.752 294.346 751.267 293.256 737.529C292.234 724.66 295.624 719.457 315.332 703.646C330.088 691.807 339.39 682.703 347.181 672.475L351.771 666.45L349.333 663.475C343.052 655.809 332.255 638.464 326.971 627.552C312.489 597.644 304.782 560.203 306.477 528C309.542 469.77 330.302 420.525 375.502 364.268C385.042 352.394 392.221 344.066 421.914 310.43C446.879 282.15 460.845 262.806 467.633 247.106C477.647 223.945 479.588 196.613 473.031 171.12L471.154 163.822L473.827 164.458C475.297 164.808 479.795 166.642 483.822 168.532ZM462.791 520.988C458.126 522.395 454.502 525.662 451.491 531.176C449.034 535.678 448.522 537.899 448.182 545.557C447.837 553.287 448.106 555.376 450.015 559.814C452.426 565.417 457.49 570.583 461.578 571.609C466.06 572.734 472.815 571.379 476.416 568.632C480.853 565.248 484.738 557.092 485.563 549.432C486.913 536.908 482.097 525.763 473.688 521.945C469.182 519.899 467.031 519.71 462.791 520.988ZM553.791 520.957C549.087 522.43 545.491 525.682 542.507 531.164C540.183 535.434 539.535 538.046 539.199 544.488C538.549 556.962 541.57 564.749 549.024 569.815C551.913 571.778 553.455 572.11 558.152 571.782C565.221 571.287 569.398 568.323 573.526 560.87C576.241 555.968 576.5 554.67 576.5 545.973C576.5 537.719 576.159 535.783 573.945 531.482C569.781 523.391 560.876 518.74 553.791 520.957Z" />
</g></svg>