<svg viewBox="0 0 1024 1024" class="svg-animate"  width="1024" height="1024"  fill="none" xmlns="http://www.w3.org/2000/svg"><defs><linearGradient id="Layer_6" x1="50%" y1="0%" x2="50%" y2="100%" gradientUnits="userSpaceOnUse"><stop offset="0%" style="stop-color: #1637E0FF" /><stop offset="100%" style="stop-color: #A62AD7FF" /></linearGradient></defs><g fill="url(#Layer_6)">
<path fill-rule="evenodd" clip-rule="evenodd" d="M0 512V1024H512H1024V512V0H512H0V512ZM479.87 166.88C505.533 177.324 533.437 205.263 548.402 235.5C558.995 256.901 561.559 268.993 563.46 306.5C564.465 326.32 565.368 336.107 566.551 340C572.092 358.23 584.152 368.996 599 368.968C614.324 368.94 622.697 359.39 623.919 340.55L624.5 331.6L636.219 344.556C661.616 372.635 683.582 406.09 695.426 434.732C710.871 472.082 717.017 501.041 716.982 536.301C716.953 564.312 712.978 586.471 703.499 611.451C696.834 629.014 689.827 641.739 677.681 658.341L672.676 665.181L669.263 659.841C661.137 647.124 654.475 631.739 649.414 614C648.08 609.325 647.245 607.3 647.56 609.5C648.617 616.899 656.024 637.323 661.323 647.453C673.636 670.987 686.938 686.598 710.525 705.195C728.768 719.579 731.394 723.325 731.415 735C731.432 744.244 728.516 751.253 721.769 758.18C713.646 766.52 705.579 769.63 680.555 774.071C670.07 775.932 663.747 777.545 662.091 778.782C660.518 779.956 658.202 784.093 655.929 789.788C650.452 803.51 647.146 807.584 638 811.881C632.011 814.695 629.627 814.832 602.5 813.932C590.442 813.531 589.118 813.672 584.236 815.879C581.34 817.188 573.736 822.21 567.337 827.04C546.647 842.655 532.099 848.246 512 848.304C491.232 848.365 477.326 842.819 455.013 825.578C439.719 813.761 434.262 812.277 412.54 814.029C395.117 815.433 390.169 814.761 382.603 809.963C376.546 806.122 372.813 800.698 368.415 789.348C366.067 783.287 363.916 779.336 362.438 778.368C361.168 777.536 353.013 775.59 344.315 774.045C324.508 770.525 320.872 769.544 313.846 765.82C298.639 757.761 290.569 742.303 294.032 727.867C295.143 723.237 296.342 721.496 302.908 714.981C307.084 710.838 314.199 704.605 318.719 701.129C342.541 682.811 362.099 654.981 371.901 625.453C374.083 618.879 376.126 611.7 376.44 609.5C376.755 607.3 375.92 609.325 374.586 614C371.036 626.443 367.271 636.455 362.741 645.5C359.429 652.112 352.929 663.216 351.369 664.927C350.32 666.077 334.737 642.438 329.063 631.09C314.447 601.858 308.158 576.408 307.271 542.91C306.481 513.113 309.738 490.998 319.11 462.5C333.228 419.576 356.034 385.07 411.832 322.21C444.255 285.684 455.628 270.999 463.969 254.889C470.114 243.02 474.482 230.114 476.055 219.176C477.553 208.757 476.748 186.052 474.542 176.5C471.96 165.325 471.72 164 472.271 164C472.558 164 475.978 165.296 479.87 166.88ZM426.405 475.25L424.5 477.5L426.75 475.595C427.988 474.547 429 473.535 429 473.345C429 472.545 428.195 473.136 426.405 475.25ZM596 474.378C596 474.585 596.788 475.373 597.75 476.128C599.336 477.371 599.371 477.336 598.128 475.75C596.821 474.084 596 473.555 596 474.378ZM628 486C628.589 487.1 629.295 488 629.57 488C629.845 488 629.589 487.1 629 486C628.411 484.9 627.705 484 627.43 484C627.155 484 627.411 484.9 628 486ZM391.624 493.539C390.659 496.053 390.943 496.702 392.122 494.675C392.706 493.671 392.973 492.639 392.715 492.382C392.458 492.124 391.966 492.645 391.624 493.539ZM405.079 515.583C405.127 516.748 405.364 516.985 405.683 516.188C405.972 515.466 405.936 514.603 405.604 514.271C405.272 513.939 405.036 514.529 405.079 515.583ZM384.079 516.583C384.127 517.748 384.364 517.985 384.683 517.188C384.972 516.466 384.936 515.603 384.604 515.271C384.272 514.939 384.036 515.529 384.079 516.583ZM619.079 517.583C619.127 518.748 619.364 518.985 619.683 518.188C619.972 517.466 619.936 516.603 619.604 516.271C619.272 515.939 619.036 516.529 619.079 517.583ZM640.079 518.583C640.127 519.748 640.364 519.985 640.683 519.188C640.972 518.466 640.936 517.603 640.604 517.271C640.272 516.939 640.036 517.529 640.079 518.583ZM404.079 519.583C404.127 520.748 404.364 520.985 404.683 520.188C404.972 519.466 404.936 518.603 404.604 518.271C404.272 517.939 404.036 518.529 404.079 519.583ZM383.158 521C383.158 522.375 383.385 522.938 383.662 522.25C383.94 521.563 383.94 520.438 383.662 519.75C383.385 519.063 383.158 519.625 383.158 521ZM459.962 522.25C447.759 528.404 443.365 549.709 451.453 563.51C457.483 573.799 469.78 575.483 478.06 567.154C486.609 558.556 488.617 541.06 482.332 529.936C480.148 526.071 478.074 523.907 474.987 522.275C469.562 519.406 465.615 519.4 459.962 522.25ZM550.5 522.288C534.766 531.16 534.185 560.557 549.545 570.622C552.665 572.666 560.734 572.711 564.577 570.705C572.378 566.632 576.218 559.414 576.806 547.718C577.464 534.635 573.674 526.425 564.914 521.956C559.908 519.402 555.436 519.505 550.5 522.288ZM620.079 521.583C620.127 522.748 620.364 522.985 620.683 522.188C620.972 521.466 620.936 520.603 620.604 520.271C620.272 519.939 620.036 520.529 620.079 521.583ZM641.158 523C641.158 524.375 641.385 524.938 641.662 524.25C641.94 523.563 641.94 522.438 641.662 521.75C641.385 521.063 641.158 521.625 641.158 523ZM403.158 524C403.158 525.375 403.385 525.938 403.662 525.25C403.94 524.563 403.94 523.438 403.662 522.75C403.385 522.063 403.158 522.625 403.158 524ZM382.195 526.5C382.215 528.15 382.439 528.704 382.693 527.731C382.947 526.758 382.93 525.408 382.656 524.731C382.382 524.054 382.175 524.85 382.195 526.5ZM621.158 526C621.158 527.375 621.385 527.938 621.662 527.25C621.94 526.563 621.94 525.438 621.662 524.75C621.385 524.063 621.158 524.625 621.158 526ZM402.195 529.5C402.215 531.15 402.439 531.704 402.693 530.731C402.947 529.758 402.93 528.408 402.656 527.731C402.382 527.054 402.175 527.85 402.195 529.5ZM642.232 531C642.232 532.925 642.438 533.712 642.689 532.75C642.941 531.788 642.941 530.212 642.689 529.25C642.438 528.288 642.232 529.075 642.232 531ZM622.252 533.5C622.263 535.7 622.468 536.482 622.707 535.238C622.946 533.994 622.937 532.194 622.687 531.238C622.437 530.282 622.241 531.3 622.252 533.5ZM381.286 535.5C381.294 538.25 381.488 539.256 381.718 537.736C381.947 536.216 381.941 533.966 381.704 532.736C381.467 531.506 381.279 532.75 381.286 535.5ZM401.3 539C401.3 542.025 401.487 543.263 401.716 541.75C401.945 540.237 401.945 537.763 401.716 536.25C401.487 534.737 401.3 535.975 401.3 539ZM643.431 559.5C643.432 572.7 643.574 577.962 643.747 571.193C643.921 564.424 643.92 553.624 643.746 547.193C643.572 540.762 643.431 546.3 643.431 559.5ZM623.43 563C623.43 575.925 623.573 581.212 623.747 574.75C623.921 568.288 623.921 557.712 623.747 551.25C623.573 544.788 623.43 550.075 623.43 563ZM380.422 564C380.422 575.275 380.568 579.888 380.746 574.25C380.924 568.612 380.924 559.388 380.746 553.75C380.568 548.112 380.422 552.725 380.422 564ZM400.402 572C400.402 580.525 400.556 584.013 400.743 579.75C400.931 575.487 400.931 568.513 400.743 564.25C400.556 559.987 400.402 563.475 400.402 572ZM644.286 588.5C644.294 591.25 644.488 592.256 644.718 590.736C644.947 589.216 644.941 586.966 644.704 585.736C644.467 584.506 644.279 585.75 644.286 588.5ZM379.252 589.5C379.263 591.7 379.468 592.482 379.707 591.238C379.946 589.994 379.937 588.194 379.687 587.238C379.437 586.282 379.241 587.3 379.252 589.5ZM624.272 591C624.272 593.475 624.467 594.487 624.706 593.25C624.944 592.013 624.944 589.987 624.706 588.75C624.467 587.513 624.272 588.525 624.272 591ZM399.272 592C399.272 594.475 399.467 595.487 399.706 594.25C399.944 593.013 399.944 590.987 399.706 589.75C399.467 588.513 399.272 589.525 399.272 592ZM377.583 599.083C377.208 601.916 377.101 604.435 377.347 604.681C377.593 604.927 378.112 602.82 378.5 600C378.888 597.18 378.994 594.661 378.736 594.403C378.478 594.144 377.959 596.251 377.583 599.083ZM645.233 596.5C645.235 598.15 645.58 600.85 646 602.5C647.058 606.659 647.105 602.566 646.057 597.5C645.362 594.137 645.231 593.978 645.233 596.5ZM398.195 599.5C398.215 601.15 398.439 601.704 398.693 600.731C398.947 599.758 398.93 598.408 398.656 597.731C398.382 597.054 398.175 597.85 398.195 599.5ZM625.233 599.5C625.235 601.15 625.58 603.85 626 605.5C627.058 609.659 627.105 605.566 626.057 600.5C625.362 597.137 625.231 596.978 625.233 599.5ZM397.195 605.5C397.215 607.15 397.439 607.704 397.693 606.731C397.947 605.758 397.93 604.408 397.656 603.731C397.382 603.054 397.175 603.85 397.195 605.5ZM394.667 616.167C393.726 620.085 393.138 623.471 393.359 623.693C393.58 623.914 394.544 620.902 395.5 617C396.456 613.098 397.045 609.711 396.807 609.474C396.57 609.237 395.607 612.249 394.667 616.167ZM627.158 611C627.158 612.375 627.385 612.938 627.662 612.25C627.94 611.563 627.94 610.438 627.662 609.75C627.385 609.063 627.158 609.625 627.158 611ZM628.17 615.5C628.154 616.6 628.527 618.4 629 619.5C630.095 622.048 630.095 619.419 629 616C628.356 613.99 628.194 613.892 628.17 615.5ZM630.052 622.67C629.94 625.191 636.426 642.055 641.524 652.5C654.517 679.122 672.718 700.821 697.5 719.236C704.1 724.14 710.111 729.308 710.857 730.72C712.608 734.031 711.784 739.015 708.822 743.045C704.496 748.93 699.113 750.756 669.154 756.5C650.112 760.15 643.645 765.19 638.031 780.755C633.941 792.096 632.783 793.762 628.429 794.579C626.456 794.949 617.79 794.695 609.171 794.014C595.397 792.925 592.682 792.969 586.741 794.375C579.307 796.135 572.949 799.122 565.858 804.185C539.02 823.35 536.371 824.81 523.66 827.435C514.142 829.401 509.875 829.4 500.208 827.427C489.628 825.268 480.543 820.642 467 810.519C445.596 794.521 437.201 791.967 412.594 793.968C391.758 795.662 391.694 795.628 386.01 779.87C382.282 769.534 377.916 764.047 370.724 760.661C367.664 759.221 357.836 756.703 347 754.583C325.02 750.282 319.182 747.873 315.499 741.588C312.643 736.715 312.311 732.429 314.543 729.243C315.391 728.031 319.104 724.921 322.793 722.331C341.467 709.218 357.246 693.261 369.229 675.368C376.027 665.218 383.974 651.272 383.969 649.5C383.968 648.95 382.026 652.114 379.654 656.532C365.099 683.636 347.335 703.885 323.356 720.705C313.703 727.476 312.051 729.458 312.022 734.3C311.952 746.348 322.04 751.816 353.958 757.032C363.412 758.577 371.425 761.324 375.466 764.406C378.997 767.099 383.848 775.69 386.531 784C390.445 796.122 391.945 796.761 412.522 795.062C428.324 793.757 432.933 794.019 441.5 796.706C449.182 799.116 452.501 801.052 466 811.003C486.356 826.008 494.855 829.408 512 829.408C529.174 829.408 537.703 825.989 558 810.964C579.203 795.269 586.465 793.05 610.101 795.046C618.132 795.724 626.325 795.974 628.308 795.602C632.514 794.813 635.17 791.833 637.585 785.192C645.545 763.305 648.606 761.113 679 755.538C698.638 751.936 702.452 750.601 707.483 745.569C712.015 741.037 713.573 736.886 712.528 732.126C711.78 728.723 710.231 727.269 699 719.432C694.325 716.169 684.397 707.425 676.938 700C656.873 680.028 643.472 658.923 633.975 632.338C631.846 626.377 630.08 622.027 630.052 622.67ZM391.2 628.7C389.72 633.522 390.436 634.238 392 629.5C392.66 627.501 393.005 625.672 392.767 625.434C392.53 625.196 391.824 626.666 391.2 628.7ZM386.903 640.226C383.722 648.601 383.685 648.728 384.919 647C386.357 644.988 390.173 634.839 389.678 634.345C389.462 634.129 388.213 636.775 386.903 640.226Z" />
</g></svg>